<svg width="16" height="16" viewBox="0 0 16 16" fill="none" xmlns="http://www.w3.org/2000/svg">
  <path d="M16 14.93L11.83 10.794C12.614 9.724 13.078 8.408 13.078 6.987C13.078 3.41 10.145 0.5 6.539 0.5C2.933 0.5 0 3.41 0 6.987C0 10.564 2.933 13.473 6.539 13.473C7.906 13.473 9.175 13.055 10.226 12.341L14.418 16.5L16 14.93ZM1.918 6.987C1.918 4.459 3.991 2.402 6.539 2.402C9.088 2.402 11.161 4.459 11.161 6.987C11.161 9.515 9.088 11.571 6.539 11.571C3.991 11.571 1.918 9.515 1.918 6.987Z" fill="#FFFFFF"/>
</svg>
